<svg xmlns="http://www.w3.org/2000/svg" viewBox="0 0 391.65 52.42"><defs><style>.cls-1{fill:#fff;}</style></defs><title>Asset 2</title><g id="Layer_2" data-name="Layer 2"><g id="Layer_1-2" data-name="Layer 1"><path class="cls-1" d="M4.46,60.26c.16-2.07.29-6.33.29-10.56v-41H16.22V29.42h.15c2.22-3.19,6.35-5.26,11.73-5.26,9,0,16.18,6.74,16.07,18,0,12.81-9.1,19-17.67,19-4.51,0-9.11-1.64-11.74-6h-.14l-.45,5.16ZM16.22,44.52a10.66,10.66,0,0,0,.14,1.82,7.75,7.75,0,0,0,7.52,5.89c5.15,0,8.58-3.52,8.58-9.72,0-5.28-2.8-9.74-8.54-9.74A7.69,7.69,0,0,0,16.4,38.9a11.21,11.21,0,0,0-.18,2Z" transform="translate(-4.46 -8.71)"/><path class="cls-1" d="M60.31,46.22c.4,4.23,5.33,6.43,10.76,6.43a32.46,32.46,0,0,0,10.69-1.59l1.56,7.64a36.55,36.55,0,0,1-13.81,2.43C56.8,61.13,49.42,54,49.42,43c0-8,5.38-18.84,19-18.84,12.7,0,17,9.84,17,17.91A19,19,0,0,1,85,46.22Zm14.36-7.81c0-2-1.16-6.83-6.87-6.83a7.59,7.59,0,0,0-7.61,6.83Z" transform="translate(-4.46 -8.71)"/><path class="cls-1" d="M92.53,11.73H125V21H104V31.67h19.64v9.25H104V60.26H92.53Z" transform="translate(-4.46 -8.71)"/><path class="cls-1" d="M143.65,15.08c0,3.06-2.29,5.59-6.21,5.59-3.75,0-6-2.53-6-5.59s2.32-5.6,6.13-5.6S143.59,12,143.65,15.08Zm-11.9,45.18V25h11.48V60.26Z" transform="translate(-4.46 -8.71)"/><path class="cls-1" d="M152.7,36.5c0-4.57-.12-8.39-.28-11.48h10l.52,5.15h.26a13.62,13.62,0,0,1,11.67-6c7.37,0,13.69,4.62,13.69,15.82V60.26H177V41.57c0-5.06-1.93-8.26-6.27-8.26a6.66,6.66,0,0,0-6.23,4.46,7.05,7.05,0,0,0-.35,2.53v20H152.7Z" transform="translate(-4.46 -8.71)"/><path class="cls-1" d="M219.39,60.26l-.69-3.51h-.26c-2.43,2.84-6.31,4.38-10.83,4.38-7.79,0-12.09-5.39-12.09-10.81,0-9.16,8.23-13.7,22.21-13.66v-.33c0-1.57-.81-4.47-7-4.45a22.76,22.76,0,0,0-10.56,2.82l-2.12-7.23c2.63-1.5,7.67-3.31,14.62-3.31,12.08,0,16.44,6.74,16.44,15.39v12a51.54,51.54,0,0,0,.57,8.69Zm-1.32-16.5c-6.65-.06-11.14,1.44-11.14,5.4,0,2.62,1.82,4,4.66,4a6.65,6.65,0,0,0,6.27-4.38,7.19,7.19,0,0,0,.21-2Z" transform="translate(-4.46 -8.71)"/><path class="cls-1" d="M238.53,36.5c0-4.57-.13-8.39-.29-11.48h10l.51,5.15H249a13.62,13.62,0,0,1,11.67-6c7.37,0,13.69,4.62,13.69,15.82V60.26H262.86V41.57c0-5.06-1.93-8.26-6.28-8.26a6.63,6.63,0,0,0-6.22,4.46A7.05,7.05,0,0,0,250,40.3v20H238.53Z" transform="translate(-4.46 -8.71)"/><path class="cls-1" d="M312.49,59.29c-2.31,1.06-6.43,1.84-11.08,1.84-12.21,0-19.94-7.24-19.94-18.15,0-10.1,7.26-18.82,21.47-18.82a29,29,0,0,1,9.44,1.54l-1.87,8.38a16.43,16.43,0,0,0-7-1.28c-6.21,0-10.28,4.05-10.22,9.69,0,6.5,4.89,9.77,10.49,9.77A19.2,19.2,0,0,0,311,51Z" transform="translate(-4.46 -8.71)"/><path class="cls-1" d="M326.85,46.22c.4,4.23,5.33,6.43,10.76,6.43a32.46,32.46,0,0,0,10.69-1.59l1.56,7.64a36.5,36.5,0,0,1-13.8,2.43C323.34,61.13,316,54,316,43c0-8,5.38-18.84,19-18.84,12.71,0,17,9.84,17,17.91a18.38,18.38,0,0,1-.43,4.15Zm14.36-7.81c0-2-1.16-6.83-6.87-6.83a7.6,7.6,0,0,0-7.61,6.83Z" transform="translate(-4.46 -8.71)"/><path class="cls-1" d="M395.82,8.71v41c0,4.23.13,8.49.29,10.56H385.82l-.44-5.55h-.14c-2.53,4.43-7.28,6.42-12.27,6.42-8.58,0-16.41-6.76-16.41-18.09-.07-11.69,8.05-18.88,17.26-18.88,4.76,0,8.58,1.54,10.38,4.12h.14V8.71ZM384.34,40.45a10.79,10.79,0,0,0-.15-2,7.39,7.39,0,0,0-7.35-5.78c-5.59,0-8.57,4.34-8.57,9.84,0,5.67,3.29,9.51,8.5,9.51a7.46,7.46,0,0,0,7.36-6,12.11,12.11,0,0,0,.21-2.57Z" transform="translate(-4.46 -8.71)"/></g></g></svg>